<svg xmlns="http://www.w3.org/2000/svg" xmlns:xlink="http://www.w3.org/1999/xlink" width="1080" zoomAndPan="magnify" viewBox="0 0 810 809.999993" height="1080" preserveAspectRatio="xMidYMid meet" version="1.0"><defs><filter x="0%" y="0%" width="100%" height="100%" id="da1bfae7a2"><feColorMatrix values="0 0 0 0 1 0 0 0 0 1 0 0 0 0 1 0 0 0 1 0" color-interpolation-filters="sRGB"/></filter><clipPath id="ba1be27de5"><path d="M 285 93 L 695 93 L 695 783 L 285 783 Z M 285 93 " clip-rule="nonzero"/></clipPath><clipPath id="77eb1a5f5b"><path d="M 89.199219 343.769531 L 639.261719 54.636719 L 890.117188 531.886719 L 340.058594 821.015625 Z M 89.199219 343.769531 " clip-rule="nonzero"/></clipPath><clipPath id="27a6ebb40a"><path d="M 89.199219 343.769531 L 639.261719 54.636719 L 890.117188 531.886719 L 340.058594 821.015625 Z M 89.199219 343.769531 " clip-rule="nonzero"/></clipPath><mask id="138914d415"><g filter="url(#da1bfae7a2)"><rect x="-81" width="972" fill="#000000" y="-80.999999" height="971.999992" fill-opacity="0.73"/></g></mask><clipPath id="1e0722bf53"><path d="M 141 9 L 500 9 L 500 777 L 141 777 Z M 141 9 " clip-rule="nonzero"/></clipPath><clipPath id="5a42147449"><path d="M -80.316406 485.121094 L 285.875 -16.941406 L 721.480469 300.777344 L 355.289062 802.839844 Z M -80.316406 485.121094 " clip-rule="nonzero"/></clipPath><clipPath id="205e5182f3"><path d="M -80.316406 485.121094 L 285.875 -16.941406 L 721.480469 300.777344 L 355.289062 802.839844 Z M -80.316406 485.121094 " clip-rule="nonzero"/></clipPath><clipPath id="c91d3894ab"><rect x="0" width="695" y="0" height="782"/></clipPath></defs><g clip-path="url(#ba1be27de5)"><g clip-path="url(#77eb1a5f5b)"><g clip-path="url(#27a6ebb40a)"><path fill="#29511d" d="M 650.304688 516.960938 C 556.800781 707.066406 320.644531 782.285156 320.644531 782.285156 C 320.644531 782.285156 235.984375 549.316406 329.304688 358.859375 C 422.621094 168.402344 658.960938 93.535156 658.960938 93.535156 C 658.960938 93.535156 743.804688 326.851562 650.304688 516.960938 Z M 650.304688 516.960938 " fill-opacity="1" fill-rule="nonzero"/></g></g></g><g mask="url(#138914d415)"><g transform="matrix(1, 0, 0, 1, 0, 6)"><g clip-path="url(#c91d3894ab)"><g clip-path="url(#1e0722bf53)"><g clip-path="url(#5a42147449)"><g clip-path="url(#205e5182f3)"><path fill="#5f9a6e" d="M 499.660156 393.132812 C 499.570312 604.992188 320.785156 776.640625 320.785156 776.640625 C 320.785156 776.640625 142.066406 604.875 141.835938 392.785156 C 141.609375 180.695312 320.710938 9.28125 320.710938 9.28125 C 320.710938 9.28125 499.75 181.277344 499.660156 393.132812 Z M 499.660156 393.132812 " fill-opacity="1" fill-rule="nonzero"/></g></g></g></g></g></g></svg>