<svg xmlns="http://www.w3.org/2000/svg" xmlns:xlink="http://www.w3.org/1999/xlink" width="1000" zoomAndPan="magnify" viewBox="0 0 750 299.999988" height="400" preserveAspectRatio="xMidYMid meet" version="1.0"><defs><filter x="0%" y="0%" width="100%" height="100%" id="0a02e49692"><feColorMatrix values="0 0 0 0 1 0 0 0 0 1 0 0 0 0 1 0 0 0 1 0" color-interpolation-filters="sRGB"/></filter><g/><clipPath id="bdb8e11395"><path d="M 112 39 L 261 39 L 261 288 L 112 288 Z M 112 39 " clip-rule="nonzero"/></clipPath><clipPath id="3118a657a5"><path d="M 42.054688 129.785156 L 240.480469 25.488281 L 330.949219 197.605469 L 132.523438 301.902344 Z M 42.054688 129.785156 " clip-rule="nonzero"/></clipPath><clipPath id="847d5b3fb3"><path d="M 42.054688 129.785156 L 240.480469 25.488281 L 330.949219 197.605469 L 132.523438 301.902344 Z M 42.054688 129.785156 " clip-rule="nonzero"/></clipPath><mask id="c90c7dea67"><g filter="url(#0a02e49692)"><rect x="-75" width="900" fill="#000000" y="-29.999999" height="359.999986" fill-opacity="0.73"/></g></mask><clipPath id="701a3ee79b"><path d="M 61 3 L 191 3 L 191 280 L 61 280 Z M 61 3 " clip-rule="nonzero"/></clipPath><clipPath id="f7c800e066"><path d="M -19.054688 174.90625 L 113.042969 -6.203125 L 270.140625 108.378906 L 138.042969 289.492188 Z M -19.054688 174.90625 " clip-rule="nonzero"/></clipPath><clipPath id="f7382fbe9f"><path d="M -19.054688 174.90625 L 113.042969 -6.203125 L 270.140625 108.378906 L 138.042969 289.492188 Z M -19.054688 174.90625 " clip-rule="nonzero"/></clipPath><clipPath id="bea557a2ea"><rect x="0" width="261" y="0" height="282"/></clipPath></defs><g clip-path="url(#bdb8e11395)"><g clip-path="url(#3118a657a5)"><g clip-path="url(#847d5b3fb3)"><path fill="#29511d" d="M 244.335938 192.222656 C 210.625 260.757812 125.492188 287.875 125.492188 287.875 C 125.492188 287.875 94.972656 203.886719 128.613281 135.226562 C 162.253906 66.566406 247.457031 39.578125 247.457031 39.578125 C 247.457031 39.578125 278.042969 123.6875 244.335938 192.222656 Z M 244.335938 192.222656 " fill-opacity="1" fill-rule="nonzero"/></g></g></g><g mask="url(#c90c7dea67)"><g transform="matrix(1, 0, 0, 1, 0, 8)"><g clip-path="url(#bea557a2ea)"><g clip-path="url(#701a3ee79b)"><g clip-path="url(#f7c800e066)"><g clip-path="url(#f7382fbe9f)"><path fill="#5f9a6e" d="M 190.027344 141.746094 C 189.996094 218.121094 125.542969 280 125.542969 280 C 125.542969 280 61.113281 218.078125 61.03125 141.621094 C 60.949219 65.160156 125.515625 3.367188 125.515625 3.367188 C 125.515625 3.367188 190.058594 65.371094 190.027344 141.746094 Z M 190.027344 141.746094 " fill-opacity="1" fill-rule="nonzero"/></g></g></g></g></g></g><g fill="#ffffff" fill-opacity="1"><g transform="translate(265.044807, 136.97092)"><g><path d="M 105.828125 -84.75 C 100.867188 -91.769531 95.082031 -97.191406 88.46875 -101.015625 C 81.851562 -104.835938 74.257812 -106.75 65.6875 -106.75 C 57.21875 -106.75 49.289062 -104.523438 41.90625 -100.078125 C 34.519531 -95.640625 28.679688 -89.675781 24.390625 -82.1875 C 20.109375 -74.707031 17.96875 -66.628906 17.96875 -57.953125 C 17.96875 -49.273438 20.265625 -41.21875 24.859375 -33.78125 C 29.460938 -26.34375 35.378906 -20.53125 42.609375 -16.34375 C 49.835938 -12.164062 57.222656 -10.078125 64.765625 -10.078125 C 71.785156 -10.078125 78.5 -11.675781 84.90625 -14.875 C 91.3125 -18.070312 96.5 -22.457031 100.46875 -28.03125 C 104.445312 -33.613281 106.4375 -39.816406 106.4375 -46.640625 L 71.734375 -46.640625 L 71.734375 -58.71875 L 120.390625 -58.71875 L 120.390625 -52.0625 C 120.390625 -44.414062 119.097656 -37.335938 116.515625 -30.828125 C 113.929688 -24.328125 109.953125 -18.597656 104.578125 -13.640625 C 99.210938 -8.679688 93.117188 -4.832031 86.296875 -2.09375 C 79.484375 0.644531 72.410156 2.015625 65.078125 2.015625 C 54.429688 2.015625 44.457031 -0.664062 35.15625 -6.03125 C 25.863281 -11.40625 18.503906 -18.765625 13.078125 -28.109375 C 7.660156 -37.460938 4.953125 -47.460938 4.953125 -58.109375 C 4.953125 -68.953125 7.710938 -79.070312 13.234375 -88.46875 C 18.765625 -97.863281 26.253906 -105.273438 35.703125 -110.703125 C 45.160156 -116.128906 55.207031 -118.84375 65.84375 -118.84375 C 76.070312 -118.84375 85.289062 -116.671875 93.5 -112.328125 C 101.71875 -107.992188 108.976562 -101.742188 115.28125 -93.578125 Z M 105.828125 -84.75 "/></g></g></g><g fill="#ffffff" fill-opacity="1"><g transform="translate(392.090274, 136.97092)"><g><path d="M 45.234375 -60.109375 C 43.992188 -61.046875 42.832031 -61.820312 41.75 -62.4375 C 40.664062 -63.0625 39.351562 -63.375 37.8125 -63.375 C 33.15625 -63.375 29.613281 -61.304688 27.1875 -57.171875 C 24.757812 -53.035156 23.546875 -46.375 23.546875 -37.1875 L 23.546875 0 L 11.15625 0 L 11.15625 -72.828125 L 23.546875 -72.828125 L 23.546875 -64.921875 L 23.859375 -64.921875 C 26.859375 -68.953125 29.519531 -71.609375 31.84375 -72.890625 C 34.164062 -74.179688 36.875 -74.828125 39.96875 -74.828125 C 41.832031 -74.828125 43.71875 -74.515625 45.625 -73.890625 C 47.539062 -73.273438 49.375 -72.453125 51.125 -71.421875 Z M 45.234375 -60.109375 "/></g></g></g><g fill="#ffffff" fill-opacity="1"><g transform="translate(443.992991, 136.97092)"><g><path d="M 75.140625 -33.78125 L 17.96875 -33.78125 C 18.175781 -26.550781 20.550781 -20.6875 25.09375 -16.1875 C 29.644531 -11.695312 35.222656 -9.453125 41.828125 -9.453125 C 46.484375 -9.453125 50.59375 -10.640625 54.15625 -13.015625 C 57.71875 -15.390625 60.992188 -19.210938 63.984375 -24.484375 L 74.53125 -18.4375 C 71.007812 -11.925781 66.382812 -6.890625 60.65625 -3.328125 C 54.925781 0.234375 48.34375 2.015625 40.90625 2.015625 C 33.78125 2.015625 27.476562 0.3125 22 -3.09375 C 16.53125 -6.507812 12.375 -11.082031 9.53125 -16.8125 C 6.6875 -22.539062 5.265625 -28.765625 5.265625 -35.484375 C 5.265625 -42.921875 6.6875 -49.632812 9.53125 -55.625 C 12.375 -61.613281 16.476562 -66.3125 21.84375 -69.71875 C 27.21875 -73.125 33.46875 -74.828125 40.59375 -74.828125 C 47.507812 -74.828125 53.628906 -73.148438 58.953125 -69.796875 C 64.273438 -66.441406 68.328125 -61.816406 71.109375 -55.921875 C 73.898438 -50.035156 75.296875 -43.425781 75.296875 -36.09375 C 75.296875 -35.375 75.242188 -34.601562 75.140625 -33.78125 Z M 62.125 -44.3125 C 61.09375 -49.988281 58.5625 -54.582031 54.53125 -58.09375 C 50.507812 -61.613281 45.914062 -63.375 40.75 -63.375 C 35.6875 -63.375 30.929688 -61.539062 26.484375 -57.875 C 22.046875 -54.207031 19.414062 -49.6875 18.59375 -44.3125 Z M 62.125 -44.3125 "/></g></g></g><g fill="#ffffff" fill-opacity="1"><g transform="translate(524.403476, 136.97092)"><g><path d="M 75.140625 -33.78125 L 17.96875 -33.78125 C 18.175781 -26.550781 20.550781 -20.6875 25.09375 -16.1875 C 29.644531 -11.695312 35.222656 -9.453125 41.828125 -9.453125 C 46.484375 -9.453125 50.59375 -10.640625 54.15625 -13.015625 C 57.71875 -15.390625 60.992188 -19.210938 63.984375 -24.484375 L 74.53125 -18.4375 C 71.007812 -11.925781 66.382812 -6.890625 60.65625 -3.328125 C 54.925781 0.234375 48.34375 2.015625 40.90625 2.015625 C 33.78125 2.015625 27.476562 0.3125 22 -3.09375 C 16.53125 -6.507812 12.375 -11.082031 9.53125 -16.8125 C 6.6875 -22.539062 5.265625 -28.765625 5.265625 -35.484375 C 5.265625 -42.921875 6.6875 -49.632812 9.53125 -55.625 C 12.375 -61.613281 16.476562 -66.3125 21.84375 -69.71875 C 27.21875 -73.125 33.46875 -74.828125 40.59375 -74.828125 C 47.507812 -74.828125 53.628906 -73.148438 58.953125 -69.796875 C 64.273438 -66.441406 68.328125 -61.816406 71.109375 -55.921875 C 73.898438 -50.035156 75.296875 -43.425781 75.296875 -36.09375 C 75.296875 -35.375 75.242188 -34.601562 75.140625 -33.78125 Z M 62.125 -44.3125 C 61.09375 -49.988281 58.5625 -54.582031 54.53125 -58.09375 C 50.507812 -61.613281 45.914062 -63.375 40.75 -63.375 C 35.6875 -63.375 30.929688 -61.539062 26.484375 -57.875 C 22.046875 -54.207031 19.414062 -49.6875 18.59375 -44.3125 Z M 62.125 -44.3125 "/></g></g></g><g fill="#ffffff" fill-opacity="1"><g transform="translate(604.813962, 136.97092)"><g><path d="M 70.03125 0 L 57.640625 0 L 57.640625 -42.453125 C 57.640625 -49.785156 56.523438 -55.101562 54.296875 -58.40625 C 52.078125 -61.71875 48.078125 -63.375 42.296875 -63.375 C 35.679688 -63.375 31.003906 -61.097656 28.265625 -56.546875 C 25.535156 -52.003906 24.171875 -45.085938 24.171875 -35.796875 L 24.171875 0 L 11.78125 0 L 11.78125 -72.828125 L 24.171875 -72.828125 L 24.171875 -63.984375 L 24.484375 -63.984375 C 27.066406 -67.492188 30.035156 -70.175781 33.390625 -72.03125 C 36.742188 -73.894531 40.691406 -74.828125 45.234375 -74.828125 C 53.398438 -74.828125 59.570312 -72.320312 63.75 -67.3125 C 67.9375 -62.3125 70.03125 -54.539062 70.03125 -44 Z M 70.03125 0 "/></g></g></g><g fill="#ffffff" fill-opacity="1"><g transform="translate(257.298717, 279.470908)"><g><path d="M 105.828125 -84.75 C 100.867188 -91.769531 95.082031 -97.191406 88.46875 -101.015625 C 81.851562 -104.835938 74.257812 -106.75 65.6875 -106.75 C 57.21875 -106.75 49.289062 -104.523438 41.90625 -100.078125 C 34.519531 -95.640625 28.679688 -89.675781 24.390625 -82.1875 C 20.109375 -74.707031 17.96875 -66.628906 17.96875 -57.953125 C 17.96875 -49.273438 20.265625 -41.21875 24.859375 -33.78125 C 29.460938 -26.34375 35.378906 -20.53125 42.609375 -16.34375 C 49.835938 -12.164062 57.222656 -10.078125 64.765625 -10.078125 C 71.785156 -10.078125 78.5 -11.675781 84.90625 -14.875 C 91.3125 -18.070312 96.5 -22.457031 100.46875 -28.03125 C 104.445312 -33.613281 106.4375 -39.816406 106.4375 -46.640625 L 71.734375 -46.640625 L 71.734375 -58.71875 L 120.390625 -58.71875 L 120.390625 -52.0625 C 120.390625 -44.414062 119.097656 -37.335938 116.515625 -30.828125 C 113.929688 -24.328125 109.953125 -18.597656 104.578125 -13.640625 C 99.210938 -8.679688 93.117188 -4.832031 86.296875 -2.09375 C 79.484375 0.644531 72.410156 2.015625 65.078125 2.015625 C 54.429688 2.015625 44.457031 -0.664062 35.15625 -6.03125 C 25.863281 -11.40625 18.503906 -18.765625 13.078125 -28.109375 C 7.660156 -37.460938 4.953125 -47.460938 4.953125 -58.109375 C 4.953125 -68.953125 7.710938 -79.070312 13.234375 -88.46875 C 18.765625 -97.863281 26.253906 -105.273438 35.703125 -110.703125 C 45.160156 -116.128906 55.207031 -118.84375 65.84375 -118.84375 C 76.070312 -118.84375 85.289062 -116.671875 93.5 -112.328125 C 101.71875 -107.992188 108.976562 -101.742188 115.28125 -93.578125 Z M 105.828125 -84.75 "/></g></g></g><g fill="#ffffff" fill-opacity="1"><g transform="translate(384.344184, 279.470908)"><g><path d="M 23.234375 -72.828125 L 23.234375 -31.140625 C 23.234375 -23.492188 24.421875 -17.96875 26.796875 -14.5625 C 29.179688 -11.15625 33.46875 -9.453125 39.65625 -9.453125 C 45.757812 -9.453125 50.023438 -11.128906 52.453125 -14.484375 C 54.878906 -17.835938 56.09375 -23.179688 56.09375 -30.515625 L 56.09375 -72.828125 L 68.484375 -72.828125 L 68.484375 -30.0625 C 68.484375 -19.519531 66.082031 -11.535156 61.28125 -6.109375 C 56.476562 -0.691406 49.269531 2.015625 39.65625 2.015625 C 30.050781 2.015625 22.847656 -0.71875 18.046875 -6.1875 C 13.242188 -11.664062 10.84375 -19.625 10.84375 -30.0625 L 10.84375 -72.828125 Z M 23.234375 -72.828125 "/></g></g></g><g fill="#ffffff" fill-opacity="1"><g transform="translate(463.670148, 279.470908)"><g><path d="M 65.84375 -62.4375 L 65.84375 -72.828125 L 78.25 -72.828125 L 78.25 0 L 65.84375 0 L 65.84375 -10.078125 L 65.53125 -10.078125 C 59.132812 -2.015625 50.769531 2.015625 40.4375 2.015625 C 30.3125 2.015625 21.96875 -1.703125 15.40625 -9.140625 C 8.851562 -16.578125 5.578125 -25.613281 5.578125 -36.25 C 5.578125 -47.40625 8.878906 -56.625 15.484375 -63.90625 C 22.097656 -71.1875 30.46875 -74.828125 40.59375 -74.828125 C 45.65625 -74.828125 50.328125 -73.742188 54.609375 -71.578125 C 58.898438 -69.410156 62.539062 -66.363281 65.53125 -62.4375 Z M 41.984375 -63.375 C 35.378906 -63.375 29.773438 -60.84375 25.171875 -55.78125 C 20.578125 -50.71875 18.28125 -44.519531 18.28125 -37.1875 C 18.28125 -29.332031 20.523438 -22.742188 25.015625 -17.421875 C 29.515625 -12.109375 35.222656 -9.453125 42.140625 -9.453125 C 49.472656 -9.453125 55.359375 -11.984375 59.796875 -17.046875 C 64.242188 -22.109375 66.46875 -28.769531 66.46875 -37.03125 C 66.46875 -44.570312 64.191406 -50.847656 59.640625 -55.859375 C 55.097656 -60.867188 49.210938 -63.375 41.984375 -63.375 Z M 41.984375 -63.375 "/></g></g></g><g fill="#ffffff" fill-opacity="1"><g transform="translate(553.066763, 279.470908)"><g><path d="M 45.234375 -60.109375 C 43.992188 -61.046875 42.832031 -61.820312 41.75 -62.4375 C 40.664062 -63.0625 39.351562 -63.375 37.8125 -63.375 C 33.15625 -63.375 29.613281 -61.304688 27.1875 -57.171875 C 24.757812 -53.035156 23.546875 -46.375 23.546875 -37.1875 L 23.546875 0 L 11.15625 0 L 11.15625 -72.828125 L 23.546875 -72.828125 L 23.546875 -64.921875 L 23.859375 -64.921875 C 26.859375 -68.953125 29.519531 -71.609375 31.84375 -72.890625 C 34.164062 -74.179688 36.875 -74.828125 39.96875 -74.828125 C 41.832031 -74.828125 43.71875 -74.515625 45.625 -73.890625 C 47.539062 -73.273438 49.375 -72.453125 51.125 -71.421875 Z M 45.234375 -60.109375 "/></g></g></g><g fill="#ffffff" fill-opacity="1"><g transform="translate(604.969468, 279.470908)"><g><path d="M 78.25 -127.828125 L 78.25 0 L 65.84375 0 L 65.84375 -10.078125 L 65.53125 -10.078125 C 62.4375 -6.046875 58.742188 -3.019531 54.453125 -1 C 50.171875 1.007812 45.5 2.015625 40.4375 2.015625 C 33.820312 2.015625 27.828125 0.285156 22.453125 -3.171875 C 17.085938 -6.628906 12.929688 -11.273438 9.984375 -17.109375 C 7.046875 -22.953125 5.578125 -29.332031 5.578125 -36.25 C 5.578125 -43.382812 7.046875 -49.921875 9.984375 -55.859375 C 12.929688 -61.796875 17.085938 -66.441406 22.453125 -69.796875 C 27.828125 -73.148438 33.875 -74.828125 40.59375 -74.828125 C 45.550781 -74.828125 50.195312 -73.742188 54.53125 -71.578125 C 58.875 -69.410156 62.539062 -66.363281 65.53125 -62.4375 L 65.84375 -62.4375 L 65.84375 -127.828125 Z M 41.984375 -63.375 C 35.273438 -63.375 29.644531 -60.816406 25.09375 -55.703125 C 20.550781 -50.585938 18.28125 -44.414062 18.28125 -37.1875 C 18.28125 -29.226562 20.5 -22.613281 24.9375 -17.34375 C 29.382812 -12.082031 35.117188 -9.453125 42.140625 -9.453125 C 49.367188 -9.453125 55.226562 -11.984375 59.71875 -17.046875 C 64.21875 -22.109375 66.46875 -28.769531 66.46875 -37.03125 C 66.46875 -44.882812 64.164062 -51.238281 59.5625 -56.09375 C 54.96875 -60.945312 49.109375 -63.375 41.984375 -63.375 Z M 41.984375 -63.375 "/></g></g></g></svg>